<?xml version="1.0" encoding="UTF-8" standalone="no"?>
<svg
   width="64"
   height="64"
   version="1.1"
   id="svg1"
   sodipodi:docname="steam_button_z_custom.svg"
   inkscape:version="1.4.2 (ebf0e940, 2025-05-08)"
   xmlns:inkscape="http://www.inkscape.org/namespaces/inkscape"
   xmlns:sodipodi="http://sodipodi.sourceforge.net/DTD/sodipodi-0.dtd"
   xmlns="http://www.w3.org/2000/svg"
   xmlns:svg="http://www.w3.org/2000/svg">
  <sodipodi:namedview
     id="namedview1"
     pagecolor="#ffffff"
     bordercolor="#000000"
     borderopacity="0.25"
     inkscape:showpageshadow="2"
     inkscape:pageopacity="0.0"
     inkscape:pagecheckerboard="0"
     inkscape:deskcolor="#d1d1d1"
     inkscape:zoom="3.25"
     inkscape:cx="-43.076923"
     inkscape:cy="92.923077"
     inkscape:window-width="1728"
     inkscape:window-height="1387"
     inkscape:window-x="861"
     inkscape:window-y="25"
     inkscape:window-maximized="0"
     inkscape:current-layer="g1" />
  <defs
     id="defs1" />
  <g
     id="g1">
    <path
       id="path1"
       style="fill:#000000;fill-opacity:1"
       d="M 32 8 C 25.366667 8 19.7 10.333333 15 15 C 10.333333 19.7 8 25.366667 8 32 C 8 38.666667 10.333333 44.315885 15 48.949219 C 19.7 53.649219 25.366667 56 32 56 C 38.666667 56 44.315885 53.649219 48.949219 48.949219 C 53.649219 44.315885 56 38.666667 56 32 C 56 25.366667 53.649219 19.7 48.949219 15 C 44.315885 10.333333 38.666667 8 32 8 z M 24 22 L 40 22 L 40 26 L 30 38 L 40 38 L 40 42 L 24 42 L 24 38 L 34 26 L 24 26 L 24 22 z " />
  </g>
</svg>
