<?xml version="1.0" encoding="UTF-8" standalone="no"?>
<svg
   width="64"
   height="64"
   version="1.1"
   id="svg1"
   sodipodi:docname="steam_button_select_custom.svg"
   inkscape:version="1.4.2 (ebf0e940, 2025-05-08)"
   xmlns:inkscape="http://www.inkscape.org/namespaces/inkscape"
   xmlns:sodipodi="http://sodipodi.sourceforge.net/DTD/sodipodi-0.dtd"
   xmlns="http://www.w3.org/2000/svg"
   xmlns:svg="http://www.w3.org/2000/svg">
  <sodipodi:namedview
     id="namedview1"
     pagecolor="#ffffff"
     bordercolor="#000000"
     borderopacity="0.25"
     inkscape:showpageshadow="2"
     inkscape:pageopacity="0.0"
     inkscape:pagecheckerboard="0"
     inkscape:deskcolor="#d1d1d1"
     inkscape:zoom="4.5961941"
     inkscape:cx="-6.4183538"
     inkscape:cy="18.493562"
     inkscape:window-width="1720"
     inkscape:window-height="1387"
     inkscape:window-x="860"
     inkscape:window-y="25"
     inkscape:window-maximized="0"
     inkscape:current-layer="g1" />
  <defs
     id="defs1" />
  <g
     id="g1"
     style="fill:#000000;fill-opacity:1">
    <path
       id="path1"
       style="fill:#000000;fill-opacity:1"
       d="M 16 8 C 10.666667 8 8 10.666667 8 16 L 8 48 C 8 53.333333 10.666667 56 16 56 L 48 56 C 53.333333 56 56 53.333333 56 48 L 56 16 C 56 10.666667 53.333333 8 48 8 L 16 8 z M 20.373047 22 L 24.523438 22 C 26.090104 22.033333 27.438932 22.616667 28.572266 23.75 L 28.623047 23.800781 C 29.289714 24.467448 29.772266 25.2 30.072266 26 L 30.222656 26.5 L 26.373047 28 C 26.373047 27.466667 26.188932 27.017057 25.822266 26.650391 L 25.722656 26.550781 C 25.35599 26.184115 24.923828 26 24.423828 26 L 20.373047 26 C 19.839714 26 19.390104 26.184115 19.023438 26.550781 L 18.923828 26.650391 C 18.557161 27.017057 18.373047 27.466667 18.373047 28 C 18.373047 28.533333 18.572656 29.000391 18.972656 29.400391 C 19.372656 29.800391 19.839714 30 20.373047 30 L 24.373047 30 C 26.039714 30 27.45638 30.583333 28.623047 31.75 C 29.789714 32.916667 30.373047 34.333333 30.373047 36 C 30.373047 37.633333 29.789714 39.032552 28.623047 40.199219 L 28.572266 40.25 C 27.405599 41.416667 26.00638 42 24.373047 42 L 20.222656 42 C 18.65599 41.966667 17.307161 41.383333 16.173828 40.25 L 16.123047 40.199219 C 15.45638 39.532552 14.989323 38.8 14.722656 38 L 14.572266 37.550781 L 18.373047 36 C 18.373047 36.533333 18.557161 36.982943 18.923828 37.349609 L 19.023438 37.449219 C 19.390104 37.815885 19.822266 38 20.322266 38 L 24.373047 38 C 24.90638 38 25.35599 37.815885 25.722656 37.449219 L 25.822266 37.349609 C 26.188932 36.982943 26.373047 36.533333 26.373047 36 C 26.373047 35.466667 26.173437 34.999609 25.773438 34.599609 C 25.373438 34.199609 24.90638 34 24.373047 34 L 20.373047 34 C 18.70638 34 17.289714 33.416667 16.123047 32.25 C 14.95638 31.083333 14.373047 29.666667 14.373047 28 C 14.373047 26.366667 14.95638 24.967448 16.123047 23.800781 L 16.173828 23.75 C 17.340495 22.583333 18.739714 22 20.373047 22 z M 34.427734 22.5 L 38.226562 22.5 L 38.226562 37.699219 L 49.626953 37.699219 L 49.626953 41.5 L 34.427734 41.5 L 34.427734 22.5 z " />
    <g
       id="g2"
       transform="translate(-1.626923)"
       style="fill:#ffffff;fill-opacity:1" />
  </g>
</svg>
