<?xml version="1.0" encoding="UTF-8" standalone="no"?>
<svg
   width="64"
   height="64"
   version="1.1"
   id="svg1"
   sodipodi:docname="steam_button_c_custom.svg"
   inkscape:version="1.4.2 (ebf0e940, 2025-05-08)"
   xmlns:inkscape="http://www.inkscape.org/namespaces/inkscape"
   xmlns:sodipodi="http://sodipodi.sourceforge.net/DTD/sodipodi-0.dtd"
   xmlns="http://www.w3.org/2000/svg"
   xmlns:svg="http://www.w3.org/2000/svg">
  <sodipodi:namedview
     id="namedview1"
     pagecolor="#ffffff"
     bordercolor="#000000"
     borderopacity="0.25"
     inkscape:showpageshadow="2"
     inkscape:pageopacity="0.0"
     inkscape:pagecheckerboard="0"
     inkscape:deskcolor="#d1d1d1"
     inkscape:zoom="9.1923882"
     inkscape:cx="49.171118"
     inkscape:cy="36.769553"
     inkscape:window-width="1728"
     inkscape:window-height="1387"
     inkscape:window-x="861"
     inkscape:window-y="25"
     inkscape:window-maximized="0"
     inkscape:current-layer="g1" />
  <defs
     id="defs1" />
  <g
     id="g1">
    <path
       id="path1"
       style="fill:#000000;fill-opacity:1"
       d="M 32 8 C 25.366667 8 19.7 10.333333 15 15 C 10.333333 19.7 8 25.366667 8 32 C 8 38.666667 10.333333 44.315885 15 48.949219 C 19.7 53.649219 25.366667 56 32 56 C 38.666667 56 44.315885 53.649219 48.949219 48.949219 C 53.649219 44.315885 56 38.666667 56 32 C 56 25.366667 53.649219 19.7 48.949219 15 C 44.315885 10.333333 38.666667 8 32 8 z M 32.224609 22 C 34.424609 22 36.308333 22.782943 37.875 24.349609 C 38.741667 25.216276 39.375391 26.165885 39.775391 27.199219 L 36.025391 28.699219 L 35.074219 27.199219 C 34.274219 26.399219 33.324609 26 32.224609 26 C 31.124609 26 30.192448 26.399219 29.425781 27.199219 C 28.625781 27.965885 28.224609 28.9 28.224609 30 L 28.224609 34.099609 C 28.257943 35.166276 28.659115 36.082943 29.425781 36.849609 C 30.192448 37.616276 31.124609 38 32.224609 38 C 33.324609 38 34.274219 37.616276 35.074219 36.849609 L 36.025391 35.349609 L 39.775391 36.800781 C 39.375391 37.834115 38.741667 38.783724 37.875 39.650391 L 36.224609 40.949219 C 35.024609 41.649219 33.691276 42 32.224609 42 C 30.757943 42 29.424609 41.649219 28.224609 40.949219 L 26.574219 39.650391 C 25.040885 38.117057 24.257943 36.299219 24.224609 34.199219 L 24.224609 30 C 24.224609 27.8 25.007552 25.916276 26.574219 24.349609 C 28.140885 22.782943 30.024609 22 32.224609 22 z " />
  </g>
</svg>
