<?xml version="1.0" encoding="UTF-8" standalone="no"?>
<svg
   width="64"
   height="64"
   version="1.1"
   id="svg1"
   sodipodi:docname="steam_button_start_custom.svg"
   inkscape:version="1.4.2 (ebf0e940, 2025-05-08)"
   xmlns:inkscape="http://www.inkscape.org/namespaces/inkscape"
   xmlns:sodipodi="http://sodipodi.sourceforge.net/DTD/sodipodi-0.dtd"
   xmlns="http://www.w3.org/2000/svg"
   xmlns:svg="http://www.w3.org/2000/svg">
  <sodipodi:namedview
     id="namedview1"
     pagecolor="#ffffff"
     bordercolor="#000000"
     borderopacity="0.25"
     inkscape:showpageshadow="2"
     inkscape:pageopacity="0.0"
     inkscape:pagecheckerboard="0"
     inkscape:deskcolor="#d1d1d1"
     inkscape:zoom="6.5"
     inkscape:cx="15.307692"
     inkscape:cy="39.692308"
     inkscape:window-width="1720"
     inkscape:window-height="1387"
     inkscape:window-x="860"
     inkscape:window-y="25"
     inkscape:window-maximized="0"
     inkscape:current-layer="g1" />
  <defs
     id="defs1" />
  <g
     id="g1"
     style="fill:#000000;fill-opacity:1">
    <path
       id="path1"
       style="fill:#000000;fill-opacity:1"
       d="M 16 8 C 10.666667 8 8 10.666667 8 16 L 8 48 C 8 53.333333 10.666667 56 16 56 L 48 56 C 53.333333 56 56 53.333333 56 48 L 56 16 C 56 10.666667 53.333333 8 48 8 L 16 8 z M 21.115234 22 L 25.265625 22 C 26.832292 22.033333 28.18112 22.616667 29.314453 23.75 L 29.365234 23.800781 C 30.031901 24.467448 30.514453 25.2 30.814453 26 L 30.964844 26.5 L 27.115234 28 C 27.115234 27.466667 26.93112 27.017057 26.564453 26.650391 L 26.464844 26.550781 C 26.098177 26.184115 25.666016 26 25.166016 26 L 21.115234 26 C 20.581901 26 20.132292 26.184115 19.765625 26.550781 L 19.666016 26.650391 C 19.299349 27.017057 19.115234 27.466667 19.115234 28 C 19.115234 28.533333 19.314844 29.000391 19.714844 29.400391 C 20.114844 29.800391 20.581901 30 21.115234 30 L 25.115234 30 C 26.781901 30 28.198568 30.583333 29.365234 31.75 C 30.531901 32.916667 31.115234 34.333333 31.115234 36 C 31.115234 37.633333 30.531901 39.032552 29.365234 40.199219 L 29.314453 40.25 C 28.147786 41.416667 26.748568 42 25.115234 42 L 20.964844 42 C 19.398177 41.966667 18.049349 41.383333 16.916016 40.25 L 16.865234 40.199219 C 16.198568 39.532552 15.73151 38.8 15.464844 38 L 15.314453 37.550781 L 19.115234 36 C 19.115234 36.533333 19.299349 36.982943 19.666016 37.349609 L 19.765625 37.449219 C 20.132292 37.815885 20.564453 38 21.064453 38 L 25.115234 38 C 25.648568 38 26.098177 37.815885 26.464844 37.449219 L 26.564453 37.349609 C 26.93112 36.982943 27.115234 36.533333 27.115234 36 C 27.115234 35.466667 26.915625 34.999609 26.515625 34.599609 C 26.115625 34.199609 25.648568 34 25.115234 34 L 21.115234 34 C 19.448568 34 18.031901 33.416667 16.865234 32.25 C 15.698568 31.083333 15.115234 29.666667 15.115234 28 C 15.115234 26.366667 15.698568 24.967448 16.865234 23.800781 L 16.916016 23.75 C 18.082682 22.583333 19.481901 22 21.115234 22 z M 32.884766 22 L 48.884766 22 L 48.884766 26 L 42.884766 26 L 42.884766 42 L 38.884766 42 L 38.884766 26 L 32.884766 26 L 32.884766 22 z " />
    <g
       id="g2"
       transform="translate(-0.8846155)" />
  </g>
</svg>
